<?xml version="1.0" encoding="UTF-8"?> <svg xmlns="http://www.w3.org/2000/svg" width="195" height="44" viewBox="0 0 195 44" fill="none"> <g clip-path="url(#clip0)"> <path fill-rule="evenodd" clip-rule="evenodd" d="M-317.5 -245.5H850.5V403.5H-317.5V-245.5Z" stroke="#979797"></path> <path fill-rule="evenodd" clip-rule="evenodd" d="M192.295 39.557C191.961 39.5574 191.634 39.4586 191.356 39.2731C191.077 39.0877 190.86 38.8239 190.732 38.5151C190.604 38.2063 190.57 37.8665 190.635 37.5385C190.7 37.2106 190.861 36.9092 191.097 36.6727C191.334 36.4361 191.635 36.275 191.963 36.2096C192.29 36.1442 192.63 36.1776 192.939 36.3054C193.248 36.4333 193.512 36.6499 193.698 36.9279C193.884 37.2058 193.983 37.5327 193.983 37.867C193.983 38.792 193.227 39.557 192.295 39.557ZM192.295 35.868C191.188 35.868 190.292 36.758 190.292 37.867C190.292 38.977 191.188 39.848 192.295 39.848C192.557 39.8509 192.817 39.8018 193.06 39.7036C193.303 39.6054 193.524 39.4599 193.711 39.2757C193.897 39.0915 194.045 38.8722 194.146 38.6304C194.248 38.3886 194.3 38.1291 194.3 37.867C194.3 37.604 194.248 37.3435 194.147 37.1006C194.046 36.8577 193.899 36.6371 193.712 36.4514C193.526 36.2657 193.305 36.1185 193.062 36.0184C192.819 35.9183 192.558 35.8672 192.295 35.868V35.868ZM191.918 37.718V37.075H192.286C192.498 37.075 192.736 37.137 192.736 37.382C192.736 37.656 192.472 37.718 192.242 37.718H191.918V37.718ZM193.139 37.392C193.139 36.907 192.726 36.732 192.305 36.732H191.514V38.985H191.918V38.043H192.208L192.735 38.985H193.227L192.62 38C192.936 37.93 193.138 37.718 193.138 37.392H193.139ZM143.976 17.491H139.232V22.372H136.288V26.227H139.232V33.912C139.232 36.605 139.887 40.227 145.062 40.227C146.072 40.227 147.348 40.023 148.108 39.732L147.991 35.958C147.509 36.119 146.768 36.318 145.881 36.318C144.475 36.318 143.976 35.33 143.976 33.878V26.228H148.183V22.372H143.976V17.492V17.491ZM180.933 30.576L187.195 22.372H181.587L177.996 27.382L174.505 22.372H168.681L174.981 30.577L167.912 39.835H173.661L177.921 33.907L182.149 39.835H188.039L180.933 30.575V30.576ZM125.363 36.206C122.223 36.206 120.793 33.526 120.793 31.033C120.793 28.576 122.223 25.929 125.363 25.929C128.502 25.929 129.933 28.576 129.933 31.033C129.933 33.526 128.502 36.207 125.363 36.207V36.206ZM125.363 21.88C119.884 21.88 115.91 25.73 115.91 31.033C115.91 36.521 119.973 40.373 125.363 40.373C130.751 40.373 134.817 36.485 134.817 31.033C134.817 25.73 130.84 21.88 125.363 21.88ZM162.106 32.438C162.106 35.028 160.644 36.651 157.992 36.651C157.006 36.651 155.243 36.352 155.243 34.783C155.243 33.099 157.351 32.06 161.463 32.06H162.106V32.438ZM158.903 21.88C156.134 21.88 153.318 23 151.435 24.747L153.903 27.517C155.039 26.379 156.987 25.66 158.553 25.66C160.27 25.66 162.02 26.52 162.02 28.576V28.882C156.963 28.907 150.537 29.518 150.537 34.719C150.537 38.544 153.858 40.255 157.151 40.255C159.209 40.255 160.984 39.083 162.068 37.812H162.176V39.835H166.709V29.277C166.709 26.515 165.695 21.88 158.903 21.88ZM86.07 25.066H85.998V22.372H81.36V39.835H86.174V30.505C86.174 30.463 86.388 26.241 90.558 26.241C90.904 26.241 91.5 26.291 92.054 26.431V22.024C91.716 21.94 90.965 21.88 90.674 21.88C88.78 21.88 87.162 23.435 86.07 25.066V25.066ZM53.216 17.491H48.472V22.372H45.53V26.227H48.473V33.912C48.473 36.605 49.129 40.227 54.303 40.227C55.313 40.227 56.59 40.023 57.35 39.732L57.233 35.958C56.751 36.119 56.01 36.318 55.122 36.318C53.716 36.318 53.217 35.33 53.217 33.878V26.228H57.425V22.372H53.217V17.492L53.216 17.491ZM72.457 31.946C72.457 33.998 71.122 36.206 68.632 36.206C66.713 36.206 65.69 34.836 65.69 32.016V22.373H60.876V33.21C60.876 36.816 62.671 40.326 67.476 40.326C69.741 40.326 71.64 38.54 72.596 37.221H72.668V39.835H77.271V22.372H72.457V31.946ZM104.108 36.206C101.203 36.206 99.468 33.612 99.468 31.104C99.468 28.614 101.241 25.929 104.108 25.929C107.223 25.929 108.773 28.576 108.773 31.033C108.773 33.603 107.085 36.207 104.108 36.207V36.206ZM105.054 21.88C102.852 21.88 101.23 22.844 99.698 24.282H99.608V12.749H94.795V39.835H99.399V37.366H99.47C100.556 39.149 102.712 40.326 104.949 40.326C109.919 40.326 113.685 36.418 113.685 31.033C113.685 25.73 109.963 21.88 105.054 21.88V21.88Z" fill="black"></path> <path fill-rule="evenodd" clip-rule="evenodd" d="M0 22.91C0 11.69 9.08 2.59698 20.28 2.59698C31.48 2.59698 40.56 11.691 40.56 22.91C40.56 34.129 31.48 43.222 20.28 43.222C9.08 43.222 0 34.13 0 22.91Z" fill="#D42D27"></path> <path fill-rule="evenodd" clip-rule="evenodd" d="M15.753 30.358C13.4269 28.676 11.1862 26.8791 9.03902 24.974C8.25006 26.7138 7.54164 28.489 6.91602 30.294C10.336 33.202 14.908 36.53 18.048 38.404C22.119 27.85 28.465 20.967 34.545 16.163C33.7686 14.5186 32.7141 13.0206 31.428 11.735C24.9202 16.7386 19.5727 23.0918 15.753 30.358" fill="white"></path> <path fill-rule="evenodd" clip-rule="evenodd" d="M62.233 5.81H64.72V12.733H66.937V5.81H69.423V3.842H62.233V5.811V5.81ZM76.918 8.734C76.918 9.919 76.253 11.141 74.849 11.141C73.426 11.141 73.185 9.827 73.185 8.771V3.849H70.968V9.403C70.968 11.217 71.928 12.993 74.239 12.993C75.551 12.993 76.604 12.198 76.993 11.309H77.03V12.734H79.136V3.848H76.918V8.734ZM81.406 12.733H83.624V3.848H81.406V12.733ZM65.829 2.684C66.1849 2.684 66.5262 2.54261 66.7779 2.29094C67.0296 2.03926 67.171 1.69792 67.171 1.342C67.171 0.986079 67.0296 0.644737 66.7779 0.393063C66.5262 0.141389 66.1849 0 65.829 0C65.6528 -1.9619e-07 65.4784 0.0347261 65.3157 0.102192C65.153 0.169659 65.0052 0.268541 64.8808 0.393184C64.7563 0.517826 64.6576 0.665783 64.5904 0.82859C64.5232 0.991397 64.4887 1.16586 64.489 1.342C64.489 2.082 65.089 2.684 65.829 2.684ZM88.772 2.684C88.9481 2.684 89.1225 2.64927 89.2852 2.58181C89.4479 2.51434 89.5958 2.41546 89.7202 2.29082C89.8447 2.16617 89.9433 2.01822 90.0106 1.85541C90.0778 1.6926 90.1122 1.51814 90.112 1.342C90.1116 1.07706 90.0327 0.81818 89.8852 0.598082C89.7377 0.377983 89.5283 0.206543 89.2834 0.105428C89.0385 0.0043135 88.7691 -0.0219378 88.5093 0.029992C88.2495 0.0819219 88.011 0.209702 87.8238 0.397184C87.6366 0.584665 87.5091 0.823434 87.4576 1.08331C87.406 1.34319 87.4327 1.61252 87.5342 1.85726C87.6357 2.10199 87.8074 2.31115 88.0277 2.45831C88.248 2.60546 88.507 2.684 88.772 2.684V2.684ZM85.178 3.842V5.811H87.665V12.733H89.881V5.81H92.368V3.842H85.178V3.842ZM48.446 12.732H50.664V3.849H48.446V12.734V12.732ZM57.833 3.589C56.521 3.589 55.468 4.384 55.079 5.273H55.042V3.848H52.936V12.733H55.153V7.845C55.153 6.661 55.819 5.439 57.223 5.439C58.645 5.439 58.886 6.755 58.886 7.809V12.733H61.104V7.18C61.104 5.366 60.143 3.59 57.833 3.59V3.589Z" fill="black"></path> </g> <defs> <clipPath id="clip0"> <rect width="195" height="44" fill="white"></rect> </clipPath> </defs> </svg> 